<?xml version="1.0" encoding="utf-8"?>
<!-- Generator: Adobe Illustrator 17.0.2, SVG Export Plug-In . SVG Version: 6.00 Build 0)  -->
<!DOCTYPE svg PUBLIC "-//W3C//DTD SVG 1.1//EN" "http://www.w3.org/Graphics/SVG/1.1/DTD/svg11.dtd">
<svg version="1.1" id="Layer_1" xmlns="http://www.w3.org/2000/svg" xmlns:xlink="http://www.w3.org/1999/xlink" x="0px" y="0px"
	 width="317.485px" height="55.922px" viewBox="0 0 317.485 55.922" enable-background="new 0 0 317.485 55.922"
	 xml:space="preserve">
<g>
	<path stroke="#000000" stroke-miterlimit="10" d="M110.121,16.083l-3.652,37.908H96.23c-0.938-5.824-1.765-12.45-2.482-19.879
		c-0.327,3.185-1.089,9.812-2.288,19.879H81.278l-3.671-37.908h7.968l0.867,13.227l0.838,12.787
		c0.303-6.617,1.059-15.288,2.268-26.014h8.517c0.113,1.109,0.411,5.276,0.895,12.503l0.906,14.423
		c0.466-9.176,1.229-18.152,2.289-26.927H110.121z"/>
	<path stroke="#000000" stroke-miterlimit="10" d="M126.324,16.083l4.69,37.908h-8.382l-0.44-6.813h-2.934l-0.493,6.813h-8.479
		l4.184-37.908H126.324z M121.978,40.458c-0.415-4.293-0.832-9.601-1.25-15.922c-0.835,7.259-1.36,12.566-1.574,15.922H121.978z"/>
	<path stroke="#000000" stroke-miterlimit="10" d="M141.407,16.083v30.322h4.987v7.586h-13.189V16.083H141.407z"/>
	<path stroke="#000000" stroke-miterlimit="10" d="M168.729,16.083L164.024,33.2l5.153,20.792h-8.475l-3.322-16.25v16.25h-8.202
		V16.083h8.202v14.728l3.653-14.728H168.729z"/>
	<path stroke="#000000" stroke-miterlimit="10" d="M179.588,16.083v37.908h-8.202V16.083H179.588z"/>
	<path stroke="#000000" stroke-miterlimit="10" d="M201.991,16.083v37.908h-7.188l-4.267-17.233v17.233h-6.857V16.083h6.857
		l4.598,17.069V16.083H201.991z"/>
	<path stroke="#000000" stroke-miterlimit="10" d="M224.901,30.039h-8.202v-3.442c0-2.169-0.078-3.527-0.234-4.074
		c-0.156-0.546-0.526-0.819-1.11-0.819c-0.507,0-0.851,0.234-1.033,0.703c-0.182,0.468-0.272,1.67-0.272,3.605v18.193
		c0,1.702,0.09,2.821,0.272,3.36c0.182,0.539,0.545,0.808,1.091,0.808c0.598,0,1.003-0.305,1.218-0.914s0.321-1.795,0.321-3.559
		v-4.496h-1.656v-5.76h9.604v20.347h-5.154l-0.758-2.716c-0.559,1.171-1.264,2.049-2.115,2.634
		c-0.852,0.585-1.855,0.878-3.012,0.878c-1.378,0-2.668-0.402-3.87-1.206s-2.115-1.799-2.739-2.985
		c-0.624-1.186-1.014-2.431-1.17-3.734c-0.156-1.303-0.233-3.258-0.233-5.865V29.734c0-3.621,0.162-6.251,0.487-7.891
		s1.256-3.141,2.795-4.507c1.539-1.366,3.529-2.049,5.971-2.049c2.403,0,4.396,0.593,5.981,1.779
		c1.584,1.187,2.617,2.596,3.097,4.227c0.48,1.631,0.721,4,0.721,7.106V30.039z"/>
	<path stroke="#000000" stroke-miterlimit="10" d="M236.705,16.083h6.137c3.961,0,6.64,0.219,8.036,0.656s2.458,1.155,3.185,2.154
		s1.182,2.111,1.364,3.336c0.182,1.226,0.272,3.633,0.272,7.223v13.276c0,3.403-0.134,5.678-0.399,6.825
		c-0.267,1.147-0.73,2.046-1.393,2.693c-0.663,0.647-1.481,1.101-2.455,1.357c-0.974,0.258-2.442,0.387-4.403,0.387h-10.345V16.083z
		 M244.906,22.569v24.937c1.182,0,1.909-0.285,2.182-0.854s0.409-2.119,0.409-4.648V27.276c0-1.717-0.046-2.817-0.136-3.301
		c-0.091-0.484-0.299-0.839-0.624-1.065C246.413,22.683,245.803,22.569,244.906,22.569z"/>
	<path stroke="#000000" stroke-miterlimit="10" d="M259.556,16.083h13.676v7.586h-5.475v7.188h5.124v7.211h-5.124v8.335h6.02v7.586
		h-14.221V16.083z"/>
	<path stroke="#000000" stroke-miterlimit="10" d="M291.11,16.083l4.689,37.908h-8.382l-0.44-6.813h-2.934l-0.493,6.813h-8.479
		l4.184-37.908H291.11z M286.763,40.458c-0.415-4.293-0.831-9.601-1.249-15.922c-0.835,7.259-1.36,12.566-1.574,15.922H286.763z"/>
	<path stroke="#000000" stroke-miterlimit="10" d="M297.991,16.083h6.137c3.961,0,6.64,0.219,8.036,0.656
		c1.396,0.437,2.457,1.155,3.185,2.154s1.182,2.111,1.364,3.336c0.182,1.226,0.272,3.633,0.272,7.223v13.276
		c0,3.403-0.134,5.678-0.399,6.825c-0.267,1.147-0.73,2.046-1.393,2.693c-0.663,0.647-1.481,1.101-2.455,1.357
		c-0.974,0.258-2.441,0.387-4.402,0.387h-10.345V16.083z M306.192,22.569v24.937c1.182,0,1.909-0.285,2.182-0.854
		c0.273-0.57,0.409-2.119,0.409-4.648V27.276c0-1.717-0.045-2.817-0.136-3.301s-0.299-0.839-0.624-1.065
		C307.699,22.683,307.089,22.569,306.192,22.569z"/>
</g>
<g>
	<path d="M117.401,0v2.415h-1.465v9.651h-2.467V2.415h-1.459V0H117.401z"/>
	<path d="M123.635,0v12.065h-2.467V6.998h-0.738v5.067h-2.467V0h2.467v4.315h0.738V0H123.635z"/>
	<path d="M124.626,0h4.113v2.415h-1.646v2.288h1.541v2.295h-1.541v2.653h1.811v2.415h-4.277V0z"/>
</g>
<rect x="0" y="16.94" stroke="#000000" stroke-miterlimit="10" width="69.447" height="38.982"/>
<rect x="4.095" y="21.362" fill="#FFFFFF" stroke="#000000" stroke-miterlimit="10" width="61.257" height="30.301"/>
<path stroke="#000000" stroke-miterlimit="10" d="M14.987,33.237H11.22c0,0-0.164-3.521,3.767-4.75c0,0,4.177-1.228,7.534,0.655
	c0,0,1.474,1.065,1.72,2.621v12.12h-3.521v-1.228c0,0-3.44,3.03-8.353,0.491c0,0-4.504-3.521,0.573-7.698
	c0,0,1.965-1.474,7.616-1.147c0,0,0.573-1.802-1.31-3.194l-2.621,0.082C16.625,31.189,14.957,31.819,14.987,33.237z"/>
<path fill="#FFFFFF" stroke="#000000" stroke-miterlimit="10" d="M20.474,37.004c0,0-5.077-0.819-5.815,1.392
	c0,0-0.573,2.293,1.638,2.703c0,0,2.784,0.655,4.177-1.802V37.004z"/>
<polygon stroke="#000000" stroke-miterlimit="10" points="26.124,43.719 26.124,28.569 31.611,28.569 34.314,39.017 37.672,28.569 
	43.158,28.569 43.158,44.16 39.391,44.16 39.555,32.909 36.279,44.16 32.922,44.16 29.892,32.909 29.892,44.16 26.124,44.16 "/>
<path stroke="#000000" stroke-miterlimit="10" d="M59.046,33.892h-3.521c0,0-0.655-2.293-3.112-2.866c0,0-3.603-0.246-4.586,3.603
	c0,0-0.901,4.745,3.112,6.549c0,0,3.112,0.74,4.504-3.109l3.603-0.164c0,0-0.491,5.487-6.306,6.715c0,0-5.323,1.241-8.189-5.603
	c0,0-1.965-7.5,3.931-10.448C48.482,28.569,56.425,25.047,59.046,33.892z"/>
</svg>
